<svg xmlns="http://www.w3.org/2000/svg" viewBox="0 0 512 512">
  <!-- Background -->
  <rect width="512" height="512" rx="100" fill="#3F51B5"/>
  
  <!-- Shelf Structure -->
  <rect x="100" y="120" width="312" height="30" fill="#FFFFFF"/>
  <rect x="100" y="240" width="312" height="30" fill="#FFFFFF"/>
  <rect x="100" y="360" width="312" height="30" fill="#FFFFFF"/>
  
  <!-- Left Support -->
  <rect x="100" y="120" width="30" height="270" fill="#FFFFFF"/>
  
  <!-- Right Support -->
  <rect x="382" y="120" width="30" height="270" fill="#FFFFFF"/>
  
  <!-- Food Items on Shelves -->
  
  <!-- Top Shelf -->
  <rect x="140" y="80" width="50" height="40" rx="5" fill="#FF9800"/> <!-- Orange jar -->
  <rect x="210" y="65" width="40" height="55" rx="5" fill="#4CAF50"/> <!-- Green bottle -->
  <rect x="275" y="70" width="60" height="50" rx="5" fill="#F44336"/> <!-- Red box -->
  <circle cx="360" cy="95" r="20" fill="#FFEB3B"/> <!-- Yellow fruit/circle -->
  
  <!-- Middle Shelf -->
  <rect x="150" y="190" width="60" height="50" rx="5" fill="#9C27B0"/> <!-- Purple container -->
  <rect x="230" y="180" width="45" height="60" rx="5" fill="#03A9F4"/> <!-- Blue container -->
  <rect x="305" y="195" width="65" height="45" rx="5" fill="#8BC34A"/> <!-- Light green box -->
  
  <!-- Bottom Shelf -->
  <rect x="140" y="310" width="55" height="50" rx="5" fill="#795548"/> <!-- Brown package -->
  <circle cx="230" cy="330" r="25" fill="#E91E63"/> <!-- Pink circle/fruit -->
  <rect x="270" y="300" width="50" height="60" rx="5" fill="#00BCD4"/> <!-- Cyan container -->
  <rect x="340" y="315" width="30" height="45" rx="5" fill="#CDDC39"/> <!-- Lime green container -->
</svg>
